<?xml version="1.0" standalone="no"?>
<!DOCTYPE svg PUBLIC "-//W3C//DTD SVG 20010904//EN"
 "http://www.w3.org/TR/2001/REC-SVG-20010904/DTD/svg10.dtd">
<svg version="1.0" xmlns="http://www.w3.org/2000/svg"
 width="292.000000pt" height="292.000000pt" viewBox="0 0 292.000000 292.000000"
 preserveAspectRatio="xMidYMid meet">
<metadata>
Created by potrace 1.11, written by Peter Selinger 2001-2013
</metadata>
<g transform="translate(0.000000,292.000000) scale(0.100000,-0.100000)"
fill="#000000" stroke="none">
<path d="M162 1463 l3 -1458 575 0 c610 0 678 3 847 36 312 60 563 189 769
394 114 114 186 210 251 339 47 93 106 261 117 331 4 22 12 69 18 105 13 74
17 372 5 473 -42 380 -232 718 -529 939 -191 142 -416 237 -648 273 -25 4 -54
10 -65 13 -11 3 -318 7 -683 9 l-662 4 2 -1458z m1115 891 c323 -44 503 -134
629 -315 60 -86 123 -244 139 -351 4 -23 9 -54 11 -68 6 -43 6 -263 -1 -305
-27 -177 -42 -228 -96 -338 -103 -208 -377 -368 -694 -403 -57 -7 -395 -12
-410 -7 -7 2 -10 306 -9 896 1 490 2 895 3 899 2 12 327 5 428 -8z"/>
</g>
</svg>
